<svg xmlns="http://www.w3.org/2000/svg" xmlns:xlink="http://www.w3.org/1999/xlink" width="300" height="60" viewBox="0 0 300 60">
    <defs>
        <rect id="a" width="60" height="60" rx="30"/>
    </defs>
    <g fill="none" fill-rule="evenodd">
        <text fill="#FFF" font-family="Oswald-Regular, Oswald" font-size="24" letter-spacing="1">
            <tspan x="76.924" y="41">SLICHTER’S JAMS</tspan>
        </text>
        <mask id="b" fill="#fff">
            <use xlink:href="#a"/>
        </mask>
        <use fill="#FFF" xlink:href="#a"/>
        <path fill="#4F64DB" stroke="#4F64DB" d="M48.645 31.186c.346-.646.551-1.41.551-2.296v-6.764c0-1.46-.586-2.75-1.647-3.63-.91-.752-2.116-1.167-3.395-1.167-.813 0-1.628.176-2.36.516a4.467 4.467 0 0 0-1.7-2.913c-.95-.736-2.207-1.14-3.535-1.14-1.188 0-2.38.338-3.333.994a4.52 4.52 0 0 0-.98-1.046c-.95-.736-2.206-1.14-3.535-1.14-1.587 0-3.181.602-4.202 1.766-.038-.03-.07-.064-.109-.094-.95-.736-2.205-1.14-3.534-1.14-2.634 0-5.302 1.647-5.302 4.795v3.408c-2.905.813-5.564 4.436-6.35 8.913-.5 2.848-1.138 12.34 10.946 17.228v12.96a1.38 1.38 0 0 0 1.375 1.383c.76 0 1.376-.62 1.376-1.383V45.56l-.905-.331c-10.708-3.922-10.618-11.443-10.083-14.496.682-3.892 3.126-6.8 4.854-6.8h10.73c1.621 0 2.056 1.821 2.056 2.9 0 1.075-.432 2.897-2.056 2.897l-7.92-.002c-.108 0-.208.015-.309.037a1.38 1.38 0 0 0-1.149 1.36 1.38 1.38 0 0 0 1.376 1.383h9.46c3.58 0 6.72 3.326 6.72 7.119a1.38 1.38 0 0 0 1.376 1.383c.76 0 1.376-.62 1.376-1.383 0-2.216-.749-4.282-1.981-5.953.032 0 .064.006.096.006 1.436 0 2.878-.493 3.896-1.448.096.097.195.192.302.28.91.753 2.116 1.166 3.395 1.166.757 0 1.515-.153 2.206-.448 1.078 4.316.873 8.242-.6 10.25-.819 1.116-2.01 1.658-3.643 1.658h-1.375v15.294a1.38 1.38 0 0 0 1.375 1.384c.76 0 1.376-.62 1.376-1.384l.006-12.626c1.868-.293 3.402-1.207 4.482-2.679 2.174-2.966 2.422-8.17.672-13.942zM20.659 15.838c.727 0 1.414.203 1.888.557.47.354.7.824.7 1.44v3.184h-5.18v-3.184c0-1.576 1.631-1.997 2.592-1.997zm7.193 5.118h-1.366V17.21c0-1.595 1.629-2.019 2.592-2.019.962 0 2.589.424 2.589 2.019v5.753c-.818-1.186-2.095-2.006-3.815-2.006zm8.993 9.777c-.961 0-2.588-.422-2.588-2.013V18.5c0-1.592 1.63-2.014 2.593-2.014.961 0 2.588.422 2.588 2.013v10.223c0 1.589-1.629 2.011-2.593 2.011zm7.45.648c-.233 0-2.266-.057-2.266-2.064v-6.88c0-2.006 2.037-2.066 2.27-2.066.625 0 1.219.2 1.627.548.422.36.636.87.636 1.518v6.88c0 2.007-2.035 2.064-2.268 2.064z" mask="url(#b)"/>
    </g>
</svg>
